<svg xmlns="http://www.w3.org/2000/svg" viewBox="0 0 200 200">
  <!-- CYBERSKILLS Academy favicon: the official "Unbox the spark" mark (public/brand/logo-academy.svg)
       in brand blue #38BDF8, on the same dark rounded tile the CYBERSKILLS site favicon uses.
       Strokes are heavier than the logo so the box still reads at 16px. -->
  <rect width="200" height="200" rx="44" fill="#0d1117"/>
  <g transform="translate(10 10) scale(0.9)">
    <g fill="none" stroke="#38BDF8" stroke-width="12" stroke-linejoin="round" stroke-linecap="round">
      <path d="M100 102 L144 122 L100 142 L56 122 Z" fill="rgba(56,189,248,0.10)"/>
      <path d="M56 122 L56 158 L100 178 L100 142 Z" fill="rgba(56,189,248,0.18)"/>
      <path d="M144 122 L144 158 L100 178 L100 142 Z" fill="rgba(56,189,248,0.30)"/>
      <path d="M56 122 L100 102 L86 80 L42 100 Z"/>
      <path d="M144 122 L100 102 L114 80 L158 100 Z"/>
    </g>
    <path d="M100 22 C102.5 44 105 49 124 52 C105 55 102.5 60 100 82 C97.5 60 95 55 76 52 C95 49 97.5 44 100 22 Z" fill="#38BDF8"/>
  </g>
</svg>
